<?xml version="1.0" standalone="no"?><!DOCTYPE svg PUBLIC "-//W3C//DTD SVG 1.1//EN" "http://www.w3.org/Graphics/SVG/1.1/DTD/svg11.dtd"><svg class="icon" height="512" viewBox="0 0 1024 1024" version="1.1" xmlns="http://www.w3.org/2000/svg"><path d="M532.165 209.177c-185.01 0-335.544 151.551-335.544 337.815 0 186.277 150.535 337.814 335.544 337.814 185.066 0 335.625-151.537 335.625-337.814C867.79 360.728 717.231 209.177 532.165 209.177zM532.165 857.617c-170.124 0-308.547-139.325-308.547-310.624 0-171.276 138.423-310.636 308.547-310.636 170.18 0 308.626 139.359 308.626 310.636C840.791 718.292 702.344 857.617 532.165 857.617zM532.165 263.549c-155.238 0-281.538 127.156-281.538 283.444 0 156.312 126.3 283.467 281.538 283.467 155.295 0 281.617-127.155 281.617-283.467C813.782 390.705 687.46 263.549 532.165 263.549zM532.165 779.992c-127.602 0-231.39-104.529-231.39-232.999 0-128.469 103.789-232.954 231.39-232.954 127.624 0 231.493 104.485 231.493 232.954C763.658 675.463 659.789 779.992 532.165 779.992zM179.611 406.812c0 30.068-10.045 52.42-37.956 68.686l-23.23 12.741 0 39.303L73.163 527.542l0-38.857-24.132-13.562c-29.212-19.395-37.055-37.67-37.055-68.31l0.035-186.322 24.954 0L36.965 403.41c0 6.313 5.045 11.403 11.347 11.403 6.198 0 11.324-5.09 11.324-11.403L59.636 220.49l25.011 0 0 201.174c0 6.313 5.103 11.427 11.29 11.427 6.301 0 11.359-5.114 11.359-11.427L107.296 220.49l25.033 0L132.329 403.41c0 6.313 5.069 11.403 11.347 11.403 6.267 0 11.324-5.09 11.324-11.403L155 220.49l24.555 0L179.611 406.812zM960.813 486.549l-46.301 0.022L914.512 254.291c0-76.563 43.914-76.563 91.46-76.563l0.137 350.909-45.296 0L960.813 486.549zM725.073 546.993c0 107.201-86.413 194.152-192.908 194.152-106.495 0-192.817-86.951-192.817-194.152 0-107.213 86.323-194.13 192.817-194.13C638.66 352.863 725.073 439.78 725.073 546.993zM71.885 566.365c-5.423 5.89-8.848 13.629-8.848 22.271l0 327.61c0 18.253 14.669 33.023 32.773 33.023 18.128 0 32.797-14.771 32.797-33.023l0-327.61c0-8.643-3.459-16.404-8.847-22.271L71.885 566.365zM1014.635 584.218c-1.015-6.449-3.96-12.18-8.161-16.758l-46.085 0c-5.285 5.709-8.642 13.276-8.642 21.702l0 4.179c-0.078 1.015-0.284 2.009-0.284 3.048l0 319.858c0 18.253 14.669 33.023 32.762 33.023 18.128 0 32.798-14.771 32.798-33.023L1017.023 596.388C1017.023 592.084 1016.154 587.998 1014.635 584.218z" /></svg>